HIERARCHY
ROOT Hips
{
	OFFSET 0.000000 0.000000 0.000000
	CHANNELS 6 Xposition Yposition Zposition Yrotation Xrotation Zrotation
	JOINT Spine
	{
		OFFSET 0.000000 -2.532004 -0.000000
		CHANNELS 3 Yrotation Xrotation Zrotation
		JOINT Spine1
		{
			OFFSET 0.000000 -6.909620 -0.000003
			CHANNELS 3 Yrotation Xrotation Zrotation
			JOINT Neck
			{
				OFFSET 0.000000 -7.527182 -0.000003
				CHANNELS 3 Yrotation Xrotation Zrotation
				JOINT Head
				{
					OFFSET 0.000000 -4.786107 -0.617563
					CHANNELS 3 Yrotation Xrotation Zrotation
					End Site
					{
						OFFSET 0.000000 -6.175619 -0.000003
					}
				}
			}
			JOINT LeftShoulder
			{
				OFFSET 1.243610 -6.077814 0.163240
				CHANNELS 3 Yrotation Xrotation Zrotation
				JOINT LeftArm
				{
					OFFSET 4.437543 0.000000 0.000000
					CHANNELS 3 Yrotation Xrotation Zrotation
					JOINT LeftForeArm
					{
						OFFSET 8.701317 0.000000 0.000000
						CHANNELS 3 Yrotation Xrotation Zrotation
						JOINT LeftHand
						{
							OFFSET 8.086747 0.000000 0.000000
							CHANNELS 3 Yrotation Xrotation Zrotation
							End Site
							{
								OFFSET 4.631717 0.000000 0.000000
							}
						}
					}
				}
			}
			JOINT RightShoulder
			{
				OFFSET -1.226452 -6.077814 0.163240
				CHANNELS 3 Yrotation Xrotation Zrotation
				JOINT RightArm
				{
					OFFSET -4.437543 0.000000 0.000000
					CHANNELS 3 Yrotation Xrotation Zrotation
					JOINT RightForeArm
					{
						OFFSET -8.701319 0.000000 0.000000
						CHANNELS 3 Yrotation Xrotation Zrotation
						JOINT RightHand
						{
							OFFSET -8.086747 0.000000 0.000000
							CHANNELS 3 Yrotation Xrotation Zrotation
							End Site
							{
								OFFSET -4.631717 0.000000 0.000000
							}
						}
					}
				}
			}
		}
	}
	JOINT LeftUpLeg
	{
		OFFSET 3.087811 0.000000 0.000000
		CHANNELS 3 Yrotation Xrotation Zrotation
		JOINT LeftLeg
		{
			OFFSET 0.000000 12.986259 0.000004
			CHANNELS 3 Yrotation Xrotation Zrotation
			JOINT LeftFoot
			{
				OFFSET 0.000000 13.614637 0.000004
				CHANNELS 3 Yrotation Xrotation Zrotation
				JOINT LeftToeBase
				{
					OFFSET 0.000000 2.007077 -4.631717
					CHANNELS 3 Yrotation Xrotation Zrotation
					End Site
					{
						OFFSET 0.000000 0.000000 -1.235125
					}
				}
			}
		}
	}
	JOINT RightUpLeg
	{
		OFFSET -3.087811 0.000000 0.000000
		CHANNELS 3 Yrotation Xrotation Zrotation
		JOINT RightLeg
		{
			OFFSET 0.000000 12.986259 0.000004
			CHANNELS 3 Yrotation Xrotation Zrotation
			JOINT RightFoot
			{
				OFFSET 0.000000 13.614637 0.000004
				CHANNELS 3 Yrotation Xrotation Zrotation
				JOINT RightToeBase
				{
					OFFSET 0.000000 2.007077 -4.631717
					CHANNELS 3 Yrotation Xrotation Zrotation
					End Site
					{
						OFFSET 0.000000 0.000000 -1.235125
					}
				}
			}
		}
	}
}
MOTION
Frames: 12
Frame Time: 0.041667
37.928917 -27.349623 1.538323 -206.954814 -11.369072 3.764714 2.256698 -12.630521 -5.174112 0.405616 19.740964 -1.010176 -10.400905 11.030708 -7.589807 -11.660954 6.572726 11.639918 0.272346 -8.356077 -17.233103 17.533442 -3.936488 25.359101 20.720646 -10.245834 -14.585790 1.363993 -12.928274 4.650814 5.880617 -5.686436 16.077608 -26.378457 19.339325 -21.156287 -80.731443 44.047538 48.117423 -5.249470 4.636220 26.857477 15.870240 8.150916 8.219803 -169.861737 160.559005 -174.864154 -7.736799 -4.285608 -11.749723 0.000000 0.000002 -0.000000 -36.572494 -73.229272 31.821664 -3.870363 67.200490 -58.560451 26.131848 3.063346 -5.151558 -0.000001 -0.000000 0.000004 
37.861515 -27.331785 1.570883 -207.719344 -11.116760 3.498794 2.369504 -12.767635 -5.022882 0.474632 19.574943 -0.856110 -10.390816 10.991773 -7.509373 -11.642045 6.621961 11.551764 0.259872 -8.329610 -17.208436 17.619083 -3.951610 25.374641 20.740028 -10.315355 -14.628143 1.316017 -13.005153 4.627800 5.981443 -5.669305 16.091248 -26.222297 19.107606 -21.073673 -81.185555 44.030220 47.673986 -5.217206 4.724477 26.824217 16.012795 7.904007 8.439544 -169.770021 160.514705 -174.771427 -7.241119 -4.253010 -11.764870 0.000001 0.000004 -0.000001 -34.501113 -72.804837 29.584172 -2.397900 66.313453 -56.710518 25.745174 3.383225 -5.626693 0.000000 0.000002 0.000002 
37.792210 -27.313433 1.607770 -208.512438 -10.913213 3.254008 2.484027 -12.884534 -4.879494 0.544515 19.437760 -0.696560 -10.331883 11.029262 -7.484868 -11.585539 6.554655 11.580357 0.283607 -8.277651 -17.229468 17.650285 -4.133653 25.415513 20.706062 -10.292767 -14.611416 1.339897 -12.976128 4.615042 6.053467 -5.648753 16.069477 -26.010820 18.906039 -20.976862 -81.586070 44.008722 47.297537 -5.254548 4.796390 26.822535 15.988515 7.732622 8.668061 -169.616943 160.424901 -174.779637 -6.662117 -4.220030 -11.810706 0.000000 0.000005 0.000000 -32.534370 -72.331171 27.434286 -0.719766 65.585095 -54.602428 25.237050 3.756368 -6.090237 -0.000001 -0.000001 0.000000 
37.723129 -27.290743 1.641523 -209.282201 -10.693920 2.959230 2.554302 -12.989008 -4.677299 0.598415 19.276547 -0.557230 -10.283247 11.025798 -7.459334 -11.541253 6.510178 11.606582 0.352786 -8.266961 -17.217643 17.641593 -4.263992 25.398245 20.672584 -10.255096 -14.550782 1.340061 -12.923562 4.618206 6.145782 -5.673273 16.075728 -25.843199 18.758391 -20.950427 -81.935018 44.014798 46.989608 -5.202394 4.850978 26.812971 16.057969 7.526200 8.904122 -169.806371 160.361299 -174.792587 -5.832865 -4.180755 -11.907065 0.000000 -0.000001 0.000000 -30.833533 -71.852962 25.532938 0.576215 64.776339 -52.749848 24.784713 4.043136 -6.289116 0.000000 0.000006 0.000009 
37.651638 -27.270590 1.676859 -210.102042 -10.494843 2.732102 2.692859 -13.107082 -4.578248 0.680676 19.181504 -0.357806 -10.262933 10.963397 -7.402284 -11.522076 6.492880 11.549747 0.336363 -8.224336 -17.233220 17.786574 -4.235782 25.428250 20.682320 -10.325686 -14.651770 1.291576 -13.010936 4.602175 6.202644 -5.683202 16.083410 -25.612989 18.501654 -20.919338 -82.403343 44.006192 46.545154 -5.143196 4.948595 26.886182 16.148331 7.438946 9.069437 -169.626122 160.373142 -174.688003 -5.300978 -4.249725 -12.060437 0.000001 0.000001 -0.000000 -29.106783 -71.277826 23.642724 2.069896 64.007062 -50.763137 24.266023 4.320847 -6.507165 -0.000001 0.000007 -0.000001 
37.579933 -27.249329 1.719636 -210.968902 -10.317644 2.527655 2.834409 -13.227688 -4.389318 0.742492 19.102675 -0.304047 -10.212577 10.923520 -7.338401 -11.474556 6.450863 11.527623 0.376462 -8.216366 -17.210364 17.842298 -4.318727 25.447108 20.680809 -10.321225 -14.656877 1.308098 -13.007405 4.555463 6.353725 -5.642576 16.074802 -25.556381 18.358114 -20.860540 -82.854778 43.802573 46.349541 -5.785925 4.630109 26.360036 16.296563 7.351915 9.251404 -169.581863 160.382349 -174.670244 -4.653426 -4.257130 -12.141676 0.000000 -0.000000 -0.000000 -27.381928 -70.671537 21.738762 3.130784 63.187111 -48.969127 23.595845 4.498243 -6.942794 0.000006 0.000002 0.000004 
37.507053 -27.224749 1.753349 -211.769045 -10.104172 2.289911 2.934760 -13.358492 -4.275043 0.810465 19.019736 -0.113961 -10.168564 10.866875 -7.334365 -11.443068 6.393853 11.578868 0.413434 -8.176032 -17.228964 17.865547 -4.476418 25.444586 20.674296 -10.282923 -14.649521 1.336607 -12.968559 4.571881 6.445858 -5.630251 16.063365 -25.334254 18.023399 -20.813630 -83.259248 43.815745 45.898796 -5.616991 4.805640 26.474858 16.314101 7.203722 9.433977 -169.217732 160.365342 -174.535471 -4.273570 -4.290021 -12.262098 -0.000001 0.000002 -0.000000 -25.839908 -70.112629 19.971330 4.299111 62.357291 -47.014996 23.173073 4.786385 -7.202960 0.000002 0.000004 0.000005 
37.435707 -27.202368 1.785083 -212.590717 -9.892543 2.061805 3.041677 -13.443920 -4.137886 0.872297 18.882797 0.019071 -10.111077 10.843524 -7.259619 -11.392131 6.276494 11.554036 0.459816 -8.170498 -17.229610 17.971741 -4.345383 25.485497 20.739917 -10.349719 -14.770778 1.276423 -13.062491 4.533384 6.540221 -5.599478 16.095756 -25.207037 17.843273 -20.821031 -84.480793 43.252610 45.276938 -7.417097 4.055006 25.221811 16.487932 7.017697 9.654963 -169.116508 160.310059 -174.487960 -3.799463 -4.291547 -12.406223 0.000001 -0.000002 0.000000 -24.560264 -69.482449 18.461018 5.689903 61.640060 -44.869073 22.454899 4.989823 -7.342019 -0.000001 0.000002 0.000002 
37.361198 -27.176815 1.816577 -213.398278 -9.661805 1.819765 3.124860 -13.581576 -3.991314 0.927078 18.796723 0.158646 -10.066131 10.757782 -7.205827 -11.352409 6.240966 11.512726 0.511905 -8.144296 -17.247401 18.016623 -4.449267 25.511206 20.763644 -10.335534 -14.781095 1.328101 -13.054519 4.458079 6.499012 -5.661786 16.043428 -24.617438 17.072177 -20.628785 -85.823301 43.069131 43.778121 -7.201225 4.451169 25.298507 16.548828 6.840151 9.899411 -168.860813 160.264624 -174.459397 -3.444735 -4.297730 -12.517010 0.000000 0.000003 0.000000 -23.532787 -68.862357 17.200054 6.721885 60.738666 -42.973822 21.979842 5.339796 -7.832641 -0.000002 0.000001 -0.000005 
37.286610 -27.152351 1.846377 -214.218611 -9.462051 1.583646 3.231210 -13.678221 -3.860363 0.990898 18.699489 0.309355 -10.028117 10.760828 -7.194477 -11.326918 6.128634 11.579204 0.610261 -8.109245 -17.246677 17.974017 -4.521422 25.531681 20.821538 -10.291742 -14.804058 1.302229 -13.022193 4.480995 6.472589 -5.641234 16.050593 -24.457782 17.180076 -20.722983 -85.794334 43.114647 44.045028 -7.220160 4.206141 25.267043 16.591218 6.685138 10.115730 -168.144354 160.233164 -174.205641 -3.540460 -4.327313 -12.683123 0.000001 -0.000001 0.000000 -22.614763 -68.176305 16.044034 7.876347 59.860399 -40.945973 21.473869 5.704174 -8.241178 0.000004 0.000001 -0.000002 
37.210831 -27.126915 1.878454 -215.012839 -9.231883 1.346641 3.300170 -13.819439 -3.722858 1.038087 18.639648 0.435383 -9.988858 10.679639 -7.144958 -11.297728 6.084290 11.600113 0.650077 -8.096611 -17.233165 18.078770 -4.484203 25.550385 20.858686 -10.307526 -14.887031 1.352472 -13.059841 4.486655 6.534841 -5.760790 16.035269 -24.232654 16.873941 -20.688829 -84.998931 43.819263 44.059378 -4.993287 5.418708 26.844469 16.778308 6.506685 10.350972 -168.079795 160.214955 -174.152625 -3.186460 -4.349755 -12.839272 0.000001 -0.000002 -0.000000 -21.988326 -67.493402 15.124597 8.938782 58.902131 -38.980525 21.037276 6.080766 -8.739550 -0.000003 0.000001 -0.000003 
37.136135 -27.103104 1.907653 -215.836587 -8.992732 1.141441 3.384205 -13.936758 -3.603520 1.088196 18.542729 0.552518 -9.926559 10.627399 -7.138106 -11.252741 6.004348 11.698982 0.707856 -8.107140 -17.231864 18.146349 -4.431747 25.590661 20.969275 -10.311134 -14.949807 1.310106 -13.087249 4.433181 6.637752 -5.647471 16.011890 -24.116602 16.825018 -20.678316 -84.944440 43.875066 44.258051 -5.021966 5.300918 26.758183 16.923057 6.345687 10.559129 -168.256369 160.196336 -174.221733 -2.610114 -4.391378 -12.872726 -0.000002 0.000001 -0.000000 -21.253682 -66.796470 14.121054 9.914594 57.888613 -36.977118 20.532433 6.497302 -9.152272 -0.000003 -0.000004 0.000001 
